<svg width="71" height="32" viewBox="0 0 71 32" fill="none" xmlns="http://www.w3.org/2000/svg">
<path d="M55.4682 13.3598C57.1356 13.3719 58.4938 11.9184 58.4998 10.1233C58.5059 8.32824 57.1588 6.86681 55.4884 6.8628C53.8179 6.85879 52.4638 8.3092 52.4527 10.1043C52.4527 11.8994 53.8013 13.3598 55.4682 13.3598Z" fill="#C9363B"/>
<path d="M19.0413 15.8249L26.7003 15.8484L29.263 26.3254L30.5287 26.3304C30.5287 26.3304 33.6645 17.7698 33.9141 17.0809C34.052 16.6921 34.1185 16.282 34.1106 15.8699L36.0923 15.875C36.1024 15.91 36.1168 15.9437 36.1353 15.9752C36.3066 16.2407 36.6441 16.419 37.1842 16.2813C37.642 16.139 37.7532 16.0152 37.9462 15.8805L41.1996 15.89C41.9419 16.3173 42.1152 16.911 42.1344 17.0463C42.1647 17.2197 42.1561 18.642 42.1561 18.642C41.1062 18.7467 37.4525 19.5253 35.8649 21.6626C33.9191 24.2773 35.248 26.7328 38.0669 26.8535C40.2452 26.9537 42.1683 25.3365 42.1683 25.3365C42.3335 26.4236 43.0732 26.7894 43.8109 26.8204C44.5486 26.8515 45.0958 26.2934 45.4647 25.849C45.8335 25.4046 45.6981 25.2057 45.4672 24.9847C45.2363 24.7638 44.9533 25.2853 44.3308 25.367C43.7083 25.4487 43.818 24.2793 43.8205 23.5574C43.8205 22.856 43.9357 19.8154 43.8685 18.2242C43.818 17.0794 43.4077 16.386 42.8676 15.8945L47.7005 15.909L47.6742 25.5925L46.8658 25.5854V26.4331L50.1915 26.4427V25.6H49.1749C49.1749 25.1937 49.1633 24.3364 49.1557 23.3134C49.1486 22.2994 49.1163 21.5368 49.1916 20.9742C49.4124 19.2452 50.242 17.1034 51.2177 16.2697C51.3766 16.125 51.5588 16.0078 51.7569 15.9231L52.7088 15.9281C52.8604 15.9897 52.97 16.0583 53.0322 16.0784C53.2585 16.15 53.9386 16.2447 54.359 15.9316L55.7394 15.9361L55.7106 25.62L54.8057 25.6175L54.8032 26.4582L58.1248 26.4677L58.1309 25.627L57.1871 25.6245C57.1906 24.5323 57.2073 18.8214 57.2159 15.9411L61.4849 15.9526L61.4561 24.1405C61.4561 24.9196 61.589 25.9737 62.2752 26.4271C64.178 27.6907 65.9475 26.5273 66.2305 26.2989C66.4755 26.1115 66.9343 25.7388 66.7777 25.4677C66.664 25.2708 66.4973 25.4492 65.9212 25.7182C65.3816 25.9652 65.0117 26.129 64.0401 25.9652C62.878 25.7588 62.9361 24.5975 62.9386 24.118C62.9411 22.9376 62.9527 19.2282 62.9623 15.9606L69.0514 15.9752L70.4 14.8754L62.9659 14.8544C62.972 12.7266 62.977 10.9466 62.979 10.4731L61.4991 11.3609L61.4849 14.8494L57.2194 14.8399C57.2194 14.5954 57.2194 14.4291 57.2194 14.3344L56.3821 14.8354L54.5571 14.8304C54.2792 14.5052 53.6941 14.3985 53.2939 14.4341C52.966 14.4626 52.5623 14.6144 52.1525 14.8233L49.1997 14.8138V14.3629L48.3953 14.8138L40.852 14.7858C39.5716 14.3769 37.7072 14.1705 36.6319 14.7737L33.6589 14.7642C33.5063 14.6291 33.3223 14.5337 33.1233 14.4867C32.7919 14.396 32.4579 14.5172 32.228 14.7597L18.0585 14.7206L19.0413 15.8249ZM24.2674 18.4772C23.9724 18.1878 23.6604 17.916 23.3331 17.663L18.0813 13.4456C15.757 11.65 14.8708 10.6054 14.8758 9.03673C14.8819 6.9826 16.5771 4.91896 19.9634 3.31825C22.5742 2.05772 25.4275 0.960515 28.1277 0.970034C30.8652 0.977048 32.7393 1.96503 32.7343 3.45152C32.7307 4.75764 30.0563 7.40545 25.8898 9.83683L28.3207 10.7026C31.8541 7.92449 34.7053 6.31877 34.5608 3.91394C34.3941 1.16643 32.2487 0.0121106 28.3581 8.64685e-05C24.7489 -0.0114367 21.0861 1.13036 18.339 2.46503C14.3084 4.46254 12.4475 7.58732 12.4379 9.99265C12.4343 11.9967 14.083 13.5548 17.1844 16.0047L21.2448 19.1946C23.8434 21.2538 24.8585 22.8971 24.8479 24.9893C24.8434 28.4322 20.6354 30.7593 13.9143 30.7403C9.66086 30.7308 5.91172 29.9066 1.66741 27.6721L0 29.5504C3.40556 30.8966 10.0681 32.0745 13.7359 31.9963C23.0618 31.8084 26.8109 27.6195 26.9236 24.371C26.9741 22.8279 26.4304 21.1275 25.2562 19.5814L24.2674 18.4772ZM32.0673 15.9882C32.3356 16.5393 32.7747 16.5959 33.1486 16.658L30.4509 24.2954L28.3889 15.8534L32.0183 15.8629C32.0375 15.9055 32.0446 15.9461 32.0673 15.9882ZM42.0864 23.7753C42.1117 24.2192 41.9965 24.5589 41.3153 24.9983C40.1765 25.7438 37.693 26.4632 36.7638 24.5659C35.7194 22.4477 37.9947 20.6906 39.1386 20.2202C40.2826 19.7497 42.1526 19.3685 42.1526 19.3685C42.1526 19.3685 42.0566 23.3334 42.0864 23.7753ZM49.185 17.6841L49.1956 15.915L50.622 15.92C50.0025 16.5137 49.4159 17.2522 49.185 17.6841Z" fill="#1E1C1A"/>
</svg>
